<?xml version="1.0" encoding="UTF-8"?>
<!DOCTYPE svg PUBLIC "-//W3C//DTD SVG 1.1//EN" "http://www.w3.org/Graphics/SVG/1.1/DTD/svg11.dtd">
<!-- Creator: Corel DESIGNER -->
<svg xmlns="http://www.w3.org/2000/svg" xml:space="preserve" width="748px" height="600px" style="shape-rendering:geometricPrecision; text-rendering:geometricPrecision; image-rendering:optimizeQuality; fill-rule:evenodd; clip-rule:evenodd"
viewBox="0 0 748 600.103"
 xmlns:xlink="http://www.w3.org/1999/xlink">
 <defs>
  <style type="text/css">
   <![CDATA[
    .str5 {stroke:#E05121;stroke-width:2.90757;stroke-linecap:round;stroke-linejoin:round}
    .str4 {stroke:#3E3B7E;stroke-width:5.81349;stroke-linecap:round;stroke-linejoin:round}
    .str1 {stroke:#1F1A17;stroke-width:8.72271;stroke-linecap:round;stroke-linejoin:round;stroke-opacity:0.250980}
    .str3 {stroke:#1F1A17;stroke-width:8.72271;stroke-linecap:round;stroke-linejoin:round;stroke-opacity:0.400000}
    .str2 {stroke:#1F1A17;stroke-width:8.72271;stroke-linecap:round;stroke-linejoin:round;stroke-opacity:0.800000}
    .str0 {stroke:#3D3B7E;stroke-width:17.4438;stroke-linecap:round;stroke-linejoin:round}
    .fil4 {fill:none}
    .fil5 {fill:none}
    .fil7 {fill:none}
    .fil6 {fill:none}
    .fil8 {fill:#DF5F22}
    .fil1 {fill:#E0E4EA}
    .fil3 {fill:#E5A823}
    .fil0 {fill:#F2F4D3}
    .fil9 {fill:white}
    .fil15 {fill:#1F1A17;fill-rule:nonzero}
    .fil2 {fill:#4D4948;fill-rule:nonzero}
    .fil12 {fill:#5887AF;fill-rule:nonzero}
    .fil11 {fill:#8C9830;fill-rule:nonzero}
    .fil10 {fill:#DE5E22;fill-rule:nonzero}
    .fil14 {fill:#E05121;fill-rule:nonzero}
    .fil13 {fill:white;fill-rule:nonzero}
   ]]>
  </style>
 </defs>
 <g id="Layer_x0020_1">
  <metadata id="CorelCorpID_0Corel-Layer"/>
  <polygon class="fil0" points="-0.00164828,466.012 748.002,76.4901 748.002,600.105 -0.00164828,600.105 "/>
  <polygon class="fil1" points="-0.00164828,466.012 748.002,76.4901 748.002,-0.00164828 -0.00164828,-0.00164828 "/>
  <path class="fil2" d="M325.949 114.684c0.301636,-1.13402 0.377456,-1.35983 2.56967,-1.81476 1.73894,-0.377456 3.70369,-0.377456 4.30861,-0.377456 1.0582,0 2.34386,0 2.34386,-2.19221 0,-0.830734 -0.68074,-1.35983 -1.51312,-1.35983 -2.79549,0 -5.82008,0.225815 -8.69304,0.225815 -2.94713,0 -6.04754,-0.225815 -8.91885,-0.225815 -0.604919,0 -2.11639,0 -2.11639,2.19221 0,1.35983 1.28401,1.35983 2.34221,1.35983 0.68074,0 3.40205,0 5.29263,0.756561l-8.01394 31.975 -18.141 -34.9996c-0.68074,-1.20819 -0.756561,-1.28401 -2.4955,-1.28401l-13.984 0c-1.28566,0 -2.64549,0 -2.64549,2.19221 0,1.35983 1.28566,1.35983 2.41803,1.35983l2.04222 0c3.25041,0 3.25041,0.151642 3.25041,0.377456 0,0.0758209 -0.151642,0.604919 -0.227463,0.832382l-10.2803 41.273c-0.301636,1.13402 -0.377456,1.43565 -2.41968,1.89058 -0.830734,0.149994 -2.41803,0.377456 -4.30861,0.377456 -1.20819,0 -2.56967,0 -2.56967,2.19221 0,0.301636 0.227463,1.35983 1.51147,1.35983 2.79713,0 5.82173,-0.225815 8.69304,-0.225815 2.94878,0 6.12337,0.225815 8.99632,0.225815 0.604919,0 2.04057,0 2.04057,-2.19221 0,-1.35983 -1.28566,-1.35983 -2.34386,-1.35983 -0.679092,0 -3.4004,0 -5.21516,-0.756561l9.90287 -39.8357 22.2238 42.9361c0.604919,1.13237 0.68074,1.20819 2.34386,1.20819 1.73729,0 2.11639,0 2.56967,-1.81311l11.0369 -44.2976z"/>
  <path id="1" class="fil2" d="M386.182 126.552c0,-13.6066 -9.37378,-18.8975 -19.8057,-18.8975 -21.7705,0 -33.4865,20.6365 -33.4865,35.8303 0,12.8517 8.76886,18.6091 19.9557,18.6091 21.393,0 33.3365,-19.5915 33.3365,-35.5419zm-32.5799 32.3541c-3.93115,0 -6.50082,-1.89058 -7.8623,-3.55369 -2.26804,-2.94713 -2.49385,-6.9541 -2.49385,-9.14631 0,-5.44263 2.79713,-18.6701 6.87828,-25.4742 4.91353,-8.08812 11.4143,-10.0529 15.4971,-10.0529 9.22213,0 10.582,8.0123 10.582,12.2451 0,5.29098 -3.09877,19.7299 -7.86065,26.684 -4.83935,7.10574 -10.3562,9.29796 -14.7406,9.29796z"/>
  <path class="fil2" d="M385.012 397.76c0,-13.6066 -9.37378,-18.8975 -19.8057,-18.8975 -21.7705,0 -33.4865,20.6365 -33.4865,35.8303 0,12.8517 8.76886,18.6091 19.9557,18.6091 21.393,0 33.3365,-19.5915 33.3365,-35.5419zm-32.5799 32.3541c-3.93115,0 -6.50082,-1.89058 -7.8623,-3.55369 -2.26804,-2.94713 -2.49385,-6.9541 -2.49385,-9.14631 0,-5.44263 2.79713,-18.6701 6.87828,-25.4742 4.91353,-8.08812 11.4143,-10.0529 15.4971,-10.0529 9.22213,0 10.582,8.0123 10.582,12.2451 0,5.29098 -3.09877,19.7299 -7.86065,26.684 -4.83935,7.10574 -10.3562,9.29796 -14.7406,9.29796z"/>
  <circle class="fil3" cx="141.367" cy="459.635" r="117.008"/>
  <line class="fil4 str0" x1="-21.4161" y1="477.163" x2="773.591" y2= "63.1588" />
  <path class="fil5 str1" d="M141.365 151.911l0 72.8079m36.4039 -36.4039l-72.8079 0"/>
  <path class="fil5 str1" d="M684.001 151.911l0 72.8079m36.4039 -36.4039l-72.8079 0"/>
  <path class="fil5 str1" d="M684.002 423.233l0 72.8079m36.4039 -36.4039l-72.8079 0"/>
  <path class="fil6 str2" d="M412.685 423.233l0 72.8079m36.4039 -36.4039l-72.8079 0"/>
  <path class="fil7 str3" d="M141.368 423.228l0 72.8079m36.4039 -36.4039l-72.8079 0"/>
  <circle class="fil8" cx="412.682" cy="323.969" r="13.5711"/>
  <circle class="fil9 str4" cx="412.682" cy="251.103" r="13.5711"/>
  <path class="fil10" d="M507.364 279.397c0.232408,-0.871941 0.290098,-0.931279 1.39445,-1.04666l3.60644 -0.0593381c0.987321,0 1.97629,0 1.97629,-1.68619 0,-1.04666 -0.988969,-1.04666 -1.86091,-1.04666l-10.699 0c-1.39609,0 -1.86091,0.0593381 -2.67516,1.3384l-20.1189 30.4685 -4.82617 -30.1784c-0.232408,-1.51147 -0.581843,-1.6285 -2.15101,-1.6285l-11.2231 0c-0.988969,0 -2.03563,0 -2.03563,1.68619 0,1.04666 0.988969,1.04666 1.86091,1.04666l1.27907 0c0.639533,0 2.15266,0.0593381 2.84988,0.117028l-8.14086 32.5634c-0.232408,0.871941 -0.290098,1.10435 -1.86091,1.45378 -0.639533,0.11538 -1.86091,0.290098 -3.31469,0.290098 -0.929631,0 -1.97629,0 -1.97629,1.68619 0,0.232408 0.174718,1.04666 1.16204,1.04666 2.15266,0 4.47838,-0.174718 6.68708,-0.174718 2.26804,0 4.71079,0.174718 6.91949,0.174718 0.466464,0 1.57081,0 1.57081,-1.68619 0,-1.04666 -0.988969,-1.04666 -1.80322,-1.04666 -0.522505,0 -2.61582,0 -4.01192,-0.581843l7.96614 -31.9816 0.0576898 0 5.35032 33.6101c0.174718,1.22138 0.464815,1.68619 1.74388,1.68619 1.45378,0 1.80322,-0.581843 2.38506,-1.45378l22.8518 -34.7145 0.0576898 0.0576898 -8.02383 32.331c-0.232408,0.814251 -0.290098,0.871941 -1.33676,0.929631 -0.698871,0.0593381 -1.6285,0.117028 -2.32737,0.117028l-1.27907 0c-0.987321,0 -2.03398,0 -2.03398,1.68619 0,0.756561 0.639533,1.04666 1.27907,1.04666 2.67516,0 5.52339,-0.174718 8.25624,-0.174718 2.79219,0 5.69811,0.174718 8.4903,0.174718 0.522505,0 1.6285,0 1.6285,-1.68619 0,-1.04666 -0.988969,-1.04666 -1.80322,-1.04666l-1.27907 0c-0.581843,0 -2.50044,-0.117028 -2.84988,-0.117028l8.25789 -33.2013z"/>
  <path class="fil6 str2" d="M412.682 151.911l0 72.8079m36.4039 -36.4039l-72.8079 0"/>
  <g id="_33670896">
   <path id="_33680528" class="fil11" d="M631.302 564.299l2.61582 0c3.37238,0 3.95423,0.697223 3.95423,2.26804 0,0.581843 -0.174718,1.74388 -0.464815,2.67516 0,0.17307 -0.117028,0.639533 -0.117028,0.814251 0,1.04666 1.04666,1.04666 1.6285,1.04666 0.988969,0 1.39609,0 1.74553,-1.39609l3.25536 -13.1417c0.117028,-0.407126 0.174718,-0.581843 0.174718,-0.756561 0,-1.04666 -1.04666,-1.04666 -1.6285,-1.04666 -1.27907,0 -1.45378,0.174718 -1.74388,1.28071 -1.04666,4.06961 -2.03563,5.52339 -6.62939,5.52339l-2.09332 0 3.8372 -15.5252c0.814251,-0.117028 2.96691,-0.117028 4.47838,-0.117028 6.57005,0 10.2919,0 10.2919,6.04754 0,0.988969 -0.117028,2.38341 -0.232408,3.43007 -0.117028,0.466464 -0.117028,0.581843 -0.117028,0.698871 0,1.10435 1.04666,1.10435 1.6285,1.10435 1.51147,0 1.57081,-0.407126 1.68619,-1.51147l1.3384 -11.5132c-0.117028,-0.988969 -1.04666,-0.988969 -1.86091,-0.988969l-29.1334 0c-0.987321,0 -1.97629,0 -1.97629,1.68619 0,1.04666 0.988969,1.04666 1.80322,1.04666l1.27907 0c0.581843,0 2.50044,0.117028 2.84823,0.117028l-8.19855 32.9112c-0.232408,0.814251 -0.290098,0.871941 -1.33676,0.929631 -0.698871,0.0593381 -1.6285,0.117028 -2.32573,0.117028l-1.27907 0c-0.988969,0 -2.03563,0 -2.03563,1.68619 0,0.756561 0.639533,1.04666 1.27907,1.04666 2.96526,0 6.04754,-0.174718 9.0128,-0.174718 3.37238,0 6.8618,0.174718 10.1765,0.174718 0.697223,0 1.80157,0 1.80157,-1.68619 0,-1.04666 -1.04666,-1.04666 -1.86091,-1.04666l-2.09332 0c-2.09332,0 -2.2087,0 -3.60479,-0.174718l3.89654 -15.5252z"/>
   <path id="_33675960" class="fil11" d="M694.602 567.002c0.651071,-0.280208 1.16369,-0.651071 1.16369,-1.4884 0,-0.837327 -0.651071,-1.20984 -1.16369,-1.44225l-28.9801 -13.862c-0.651071,-0.32636 -0.929631,-0.32636 -1.06973,-0.32636 -0.745023,0 -1.39609,0.651071 -1.39609,1.39609 0,0.743375 0.418663,1.11589 1.16369,1.4884l26.7483 12.7462 -26.7483 12.7989c-0.791175,0.372512 -1.16369,0.791175 -1.16369,1.4884 0,0.652719 0.558767,1.39609 1.44225,1.39609 0.32636,0 0.558767,-0.0923038 0.883479,-0.27856l29.1202 -13.9164z"/>
   <path id="_33671240" class="fil11" d="M734.149 554.762c0,-4.30201 -1.10435,-10.4666 -10.2342,-10.4666 -6.16457,0 -11.2231,3.08229 -14.5955,8.89742 -3.13998,5.58273 -5.4657,15.4675 -5.4657,20.236 0,4.01192 0.929631,10.3018 10.2919,10.3018 3.89654,0 8.7804,-1.23127 12.7346,-6.11512 5.1756,-6.45467 7.26892,-18.9569 7.26892,-22.8534zm-19.5387 26.8653c-2.55813,0 -4.76683,-1.80322 -4.76683,-5.00089 0,-3.77951 4.18663,-21.515 6.57005,-25.9917 0.988969,-1.80322 3.72182,-4.24597 6.97718,-4.24597 3.0246,0 4.9432,2.03563 4.9432,4.76848 0,4.12894 -3.8372,18.375 -5.23329,22.4446 -0.581843,1.74553 -2.67516,8.02548 -8.4903,8.02548z"/>
  </g>
  <g id="_33657208">
   <path id="_33666328" class="fil12" d="M35.0787 36.755l2.61582 0c3.37238,0 3.95423,0.697223 3.95423,2.26804 0,0.581843 -0.174718,1.74388 -0.464815,2.67516 0,0.17307 -0.117028,0.639533 -0.117028,0.814251 0,1.04666 1.04666,1.04666 1.6285,1.04666 0.988969,0 1.39609,0 1.74553,-1.39609l3.25536 -13.1417c0.117028,-0.407126 0.174718,-0.581843 0.174718,-0.756561 0,-1.04666 -1.04666,-1.04666 -1.6285,-1.04666 -1.27907,0 -1.45378,0.174718 -1.74388,1.28071 -1.04666,4.06961 -2.03563,5.52339 -6.62939,5.52339l-2.09332 0 3.8372 -15.5252c0.814251,-0.117028 2.96691,-0.117028 4.47838,-0.117028 6.57005,0 10.2919,0 10.2919,6.04754 0,0.988969 -0.117028,2.38341 -0.232408,3.43007 -0.117028,0.466464 -0.117028,0.581843 -0.117028,0.698871 0,1.10435 1.04666,1.10435 1.6285,1.10435 1.51147,0 1.57081,-0.407126 1.68619,-1.51147l1.3384 -11.5132c-0.117028,-0.988969 -1.04666,-0.988969 -1.86091,-0.988969l-29.1334 0c-0.987321,0 -1.97629,0 -1.97629,1.68619 0,1.04666 0.988969,1.04666 1.80322,1.04666l1.27907 0c0.581843,0 2.50044,0.117028 2.84823,0.117028l-8.19855 32.9112c-0.232408,0.814251 -0.290098,0.871941 -1.33676,0.929631 -0.698871,0.0593381 -1.6285,0.117028 -2.32573,0.117028l-1.27907 0c-0.988969,0 -2.03563,0 -2.03563,1.68619 0,0.756561 0.639533,1.04666 1.27907,1.04666 2.96526,0 6.04754,-0.174718 9.0128,-0.174718 3.37238,0 6.8618,0.174718 10.1765,0.174718 0.697223,0 1.80157,0 1.80157,-1.68619 0,-1.04666 -1.04666,-1.04666 -1.86091,-1.04666l-2.09332 0c-2.09332,0 -2.2087,0 -3.60479,-0.174718l3.89654 -15.5252z"/>
   <path id="_33661760" class="fil12" d="M95.9926 25.2237c0.651071,-0.32636 1.16369,-0.698871 1.16369,-1.4884 0,-0.651071 -0.558767,-1.39609 -1.44225,-1.39609 -0.32636,0 -0.558767,0.0923038 -0.883479,0.27856l-29.1202 13.9098c-0.512616,0.232408 -1.16369,0.604919 -1.16369,1.44225 0,0.837327 0.558767,1.20819 1.16369,1.4884l28.9801 13.8703c0.651071,0.324711 0.931279,0.324711 1.02358,0.324711 0.883479,0 1.44225,-0.743375 1.44225,-1.39609 0,-0.789527 -0.512616,-1.16204 -1.16369,-1.4884l-26.7467 -12.7528 26.7467 -12.7923z"/>
   <path id="_33657568" class="fil12" d="M137.927 27.2181c0,-4.30201 -1.10435,-10.4666 -10.2342,-10.4666 -6.16457,0 -11.2231,3.08229 -14.5955,8.89742 -3.13998,5.58273 -5.4657,15.4675 -5.4657,20.236 0,4.01192 0.929631,10.3018 10.2919,10.3018 3.89654,0 8.7804,-1.23127 12.7346,-6.11512 5.1756,-6.45467 7.26892,-18.9569 7.26892,-22.8534zm-19.5387 26.8653c-2.55813,0 -4.76683,-1.80322 -4.76683,-5.00089 0,-3.77951 4.18663,-21.515 6.57005,-25.9917 0.988969,-1.80322 3.72182,-4.24597 6.97718,-4.24597 3.0246,0 4.9432,2.03563 4.9432,4.76848 0,4.12894 -3.8372,18.375 -5.23329,22.4446 -0.581843,1.74553 -2.67516,8.02548 -8.4903,8.02548z"/>
  </g>
  <path class="fil13" d="M71.9574 537.722c-1.68619,-1.57081 -5.4657,-5.11791 -7.90681,-12.5599 -1.51312,-4.60365 -2.21035,-9.95397 -2.21035,-15.0702 0,-11.4556 2.96526,-20.5854 9.36224,-27.0401 0.871941,-0.871941 0.929631,-0.929631 0.929631,-1.21973 0,-0.641181 -0.581843,-0.814251 -1.04666,-0.814251 -0.988969,0 -3.43007,2.15101 -4.47673,3.13998 -9.07214,9.0128 -10.4089,19.7118 -10.4089,25.8747 0,7.26892 1.9186,13.6659 4.65145,18.502 3.83885,6.68708 9.12983,10.582 10.2342,10.582 0.464815,0 1.04666,-0.174718 1.04666,-0.814251 0,-0.290098 -0.174718,-0.522505 -0.174718,-0.580195z"/>
  <path id="1" class="fil13" d="M135.466 523.466c-0.464815,6.34753 -4.24432,9.42817 -5.4657,10.4748 -0.347787,0.291746 -0.522505,0.466464 -0.522505,0.814251 0,0.581843 0.639533,1.16369 1.10435,1.16369 0.871941,0 6.97882,-5.00089 6.97882,-13.0923 0,-3.95423 -1.97794,-7.26892 -5.35032,-7.26892 -2.67516,0 -4.47673,2.03398 -4.47673,4.53442 0,2.32737 1.56916,4.53607 4.53442,4.53607 1.86091,0 3.0246,-0.988969 3.19767,-1.16204z"/>
  <path id="12" class="fil13" d="M232.469 510.092c0,-7.26892 -1.9186,-13.6659 -4.65145,-18.4921 -3.83885,-6.68708 -9.12983,-10.582 -10.2342,-10.582 -0.464815,0 -1.04666,0.17307 -1.04666,0.814251 0,0.290098 0,0.405477 0.988969,1.33676 7.32661,7.44199 9.3029,17.7355 9.3029,26.8637 0,11.4556 -2.96526,20.5953 -9.36224,27.0483 -0.871941,0.873589 -0.929631,0.931279 -0.929631,1.22138 0,0.639533 0.581843,0.814251 1.04666,0.814251 0.988969,0 3.43007,-2.15101 4.47673,-3.13998 9.07214,-9.0128 10.4089,-19.7217 10.4089,-25.8846z"/>
  <path id="123" class="fil13" d="M100.042 505.614c0.524153,-2.2087 2.15266,-5.1756 4.47838,-5.1756 0.290098,0 1.45378,0 2.38341,0.931279 -2.96526,1.10435 -2.96526,3.72182 -2.96526,3.95423 0,1.45378 1.10435,2.67516 2.90757,2.67516 2.15101,0 4.18663,-1.80322 4.18663,-4.53607 0,-3.08229 -2.90757,-5.11791 -6.33764,-5.11791 -1.3384,0 -3.60644,0.349436 -5.93216,3.08229 -1.33676,-1.86091 -3.89489,-3.08229 -7.32661,-3.08229 -7.20958,0 -11.0484,7.21123 -11.0484,9.07214 0,0.814251 0.756561,0.814251 1.6285,0.814251 1.16369,0 1.39609,0 1.68619,-0.814251 1.51147,-5.00089 5.11791,-6.97882 7.44364,-6.97882 2.96526,0 2.96526,2.21035 2.96526,2.84988 0,1.22138 -0.756561,4.24432 -1.27907,6.33764l-1.86091 7.56067c-0.814251,3.19767 -2.26804,5.81349 -4.65145,5.81349 -0.174718,0 -1.45378,0 -2.32573,-0.929631 2.96526,-1.10435 2.96526,-3.72182 2.96526,-3.95423 0,-1.45378 -1.10435,-2.67516 -2.90757,-2.67516 -2.21035,0 -4.18663,1.86091 -4.18663,4.53607 0,3.02295 2.79054,5.12616 6.33764,5.12616 2.96526,0 5.00089,-1.98618 5.93216,-3.09053 1.33676,1.97629 4.06961,3.09053 7.26727,3.09053 7.26892,0 11.1061,-7.21947 11.1061,-9.08038 0,-0.814251 -0.754913,-0.814251 -1.62685,-0.814251 -1.16369,0 -1.39609,0 -1.68619,0.814251 -1.51312,4.88386 -5.00089,6.97718 -7.50133,6.97718 -2.96526,0 -2.96526,-2.26804 -2.96526,-2.84823 0,-0.349436 0,-0.931279 0.17307,-1.6285l3.13998 -12.9093z"/>
  <path id="1234" class="fil13" d="M200.011 502.591c0.232408,-0.871941 0.232408,-0.988969 0.232408,-1.27907 0,-1.80322 -1.39445,-2.50044 -2.61582,-2.50044 -0.349436,0 -2.90757,0.0576898 -3.66413,3.13998l-4.18663 16.6295c-0.17307,0.698871 -0.407126,1.57081 -2.15101,3.0246 -0.464815,0.407126 -1.86091,1.39445 -3.66248,1.39445 -2.90757,0 -3.0246,-2.73285 -3.0246,-4.01192 0,-3.48941 1.97794,-8.66337 3.37238,-12.3275 0.524153,-1.45378 0.814251,-2.15101 0.814251,-3.13998 0,-3.25536 -2.96526,-5.1756 -6.10523,-5.1756 -6.04754,0 -8.89742,7.85076 -8.89742,9.07214 0,0.814251 0.756561,0.814251 1.6285,0.814251 1.10435,0 1.39609,0 1.6285,-0.756561 0.464815,-1.51147 2.03563,-7.03651 5.35032,-7.03651 0.290098,0 0.812603,0 0.812603,1.04666 0,1.22138 -0.697223,3.0246 -1.04666,3.83885 -1.85926,5.00089 -3.48776,9.18752 -3.48776,12.4429 0,5.29263 3.77951,7.3365 8.60568,7.3365 2.32573,0 4.01192,-0.824141 4.88386,-1.40434 -1.10435,5.24318 -4.70914,10.5919 -9.18752,10.5919 -0.522505,0 -1.86091,-0.0576898 -3.02295,-0.871941 0.871941,-0.407126 2.61582,-1.6285 2.61582,-3.8372 0,-2.21035 -1.80157,-2.67516 -2.84823,-2.67516 -2.32573,0 -4.18663,1.9186 -4.18663,4.41904 0,3.08229 3.08064,5.05858 7.3843,5.05858 7.32661,0 13.7813,-5.69811 15.1774,-11.3385l5.58108 -22.4545z"/>
  <path id="12345" class="fil13" d="M123.674 514.598c0,-1.0582 -0.773044,-1.95486 -1.99442,-1.95486 -1.50488,0 -2.88944,1.38456 -2.88944,2.80867 0,1.0994 0.814251,1.95486 1.99442,1.95486 1.50653,0 2.88944,-1.38456 2.88944,-2.80867zm-9.4018 21.4095c-0.243946,0.651071 -0.365918,0.977431 -0.365918,1.5873 0,2.27957 2.07519,3.63611 4.27399,3.63611 4.23279,0 6.22721,-5.50856 6.22721,-6.36237 0,-0.570305 -0.529098,-0.570305 -1.14061,-0.570305 -0.773044,0 -0.975783,0 -1.13896,0.529098 -0.32636,1.0582 -1.42412,4.92506 -3.7449,4.92506 -0.202739,0 -0.570305,0 -0.570305,-0.733485 0,-0.529098 0.285153,-1.54609 0.32636,-1.62685l3.66248 -9.6886c0.245594,-0.651071 0.367567,-0.975783 0.367567,-1.5873 0,-2.27957 -2.07683,-3.62292 -4.27399,-3.62292 -4.23279,0 -6.22886,5.49537 -6.22886,6.35083 0,0.568657 0.530747,0.568657 1.14061,0.568657 0.773044,0 0.977431,0 1.13896,-0.529098 0.32636,-1.0582 1.42576,-4.92506 3.7449,-4.92506 0.204387,0 0.570305,0 0.570305,0.733485 0,0.529098 -0.285153,1.54609 -0.32636,1.6285l-3.66248 9.68695z"/>
  <path id="123456" class="fil13" d="M213.466 514.598c0,-1.0582 -0.773044,-1.95321 -1.99442,-1.95321 -1.50653,0 -2.88944,1.38291 -2.88944,2.80702 0,1.0994 0.814251,1.95486 1.99442,1.95486 1.50653,0 2.88944,-1.38456 2.88944,-2.80867zm-9.4018 21.4095c-0.243946,0.651071 -0.365918,0.977431 -0.365918,1.5873 0,2.27957 2.07519,3.63611 4.27235,3.63611 4.23443,0 6.22886,-5.50856 6.22886,-6.36401 0,-0.568657 -0.529098,-0.568657 -1.14061,-0.568657 -0.773044,0 -0.975783,0 -1.13896,0.529098 -0.32636,1.0582 -1.42412,4.92506 -3.7449,4.92506 -0.204387,0 -0.570305,0 -0.570305,-0.733485 0,-0.529098 0.285153,-1.54609 0.32636,-1.6285l3.66248 -9.68695c0.243946,-0.651071 0.365918,-0.975783 0.365918,-1.5873 0,-2.27957 -2.07519,-3.62292 -4.27235,-3.62292 -4.23443,0 -6.22886,5.49537 -6.22886,6.35083 0,0.568657 0.529098,0.568657 1.14061,0.568657 0.773044,0 0.977431,0 1.13896,-0.529098 0.32636,-1.0582 1.42576,-4.92506 3.7449,-4.92506 0.204387,0 0.570305,0 0.570305,0.733485 0,0.529098 -0.285153,1.54609 -0.32636,1.6285l-3.66248 9.68695z"/>
  <path class="fil14" d="M573.905 360.829c0.232408,-0.871941 0.232408,-0.988969 0.232408,-1.27907 0,-1.80322 -1.39445,-2.50044 -2.61582,-2.50044 -0.349436,0 -2.90757,0.0576898 -3.66413,3.13998l-4.18663 16.6295c-0.17307,0.698871 -0.407126,1.57081 -2.15101,3.0246 -0.464815,0.407126 -1.86091,1.39445 -3.66248,1.39445 -2.90757,0 -3.0246,-2.73285 -3.0246,-4.01192 0,-3.48941 1.97794,-8.66337 3.37238,-12.3275 0.524153,-1.45378 0.814251,-2.15101 0.814251,-3.13998 0,-3.25536 -2.96526,-5.1756 -6.10523,-5.1756 -6.04754,0 -8.89742,7.85076 -8.89742,9.07214 0,0.814251 0.756561,0.814251 1.6285,0.814251 1.10435,0 1.39609,0 1.6285,-0.756561 0.464815,-1.51147 2.03563,-7.03651 5.35032,-7.03651 0.290098,0 0.812603,0 0.812603,1.04666 0,1.22138 -0.697223,3.0246 -1.04666,3.83885 -1.85926,5.00089 -3.48776,9.18752 -3.48776,12.4429 0,5.29263 3.77951,7.3365 8.60568,7.3365 2.32573,0 4.01192,-0.824141 4.88386,-1.40434 -1.10435,5.24318 -4.70914,10.5919 -9.18752,10.5919 -0.522505,0 -1.86091,-0.0576898 -3.02295,-0.871941 0.871941,-0.407126 2.61582,-1.6285 2.61582,-3.8372 0,-2.21035 -1.80157,-2.67516 -2.84823,-2.67516 -2.32573,0 -4.18663,1.9186 -4.18663,4.41904 0,3.08229 3.08064,5.05858 7.3843,5.05858 7.32661,0 13.7813,-5.69811 15.1774,-11.3385l5.58108 -22.4545z"/>
  <path id="1" class="fil14" d="M587.36 372.836c0,-1.0582 -0.773044,-1.95321 -1.99442,-1.95321 -1.50653,0 -2.88944,1.38291 -2.88944,2.80702 0,1.0994 0.814251,1.95486 1.99442,1.95486 1.50653,0 2.88944,-1.38456 2.88944,-2.80867zm-9.4018 21.4095c-0.243946,0.651071 -0.365918,0.977431 -0.365918,1.5873 0,2.27957 2.07519,3.63611 4.27235,3.63611 4.23443,0 6.22886,-5.50856 6.22886,-6.36401 0,-0.568657 -0.529098,-0.568657 -1.14061,-0.568657 -0.773044,0 -0.975783,0 -1.13896,0.529098 -0.32636,1.0582 -1.42412,4.92506 -3.7449,4.92506 -0.204387,0 -0.570305,0 -0.570305,-0.733485 0,-0.529098 0.285153,-1.54609 0.32636,-1.6285l3.66248 -9.68695c0.243946,-0.651071 0.365918,-0.975783 0.365918,-1.5873 0,-2.27957 -2.07519,-3.62292 -4.27235,-3.62292 -4.23443,0 -6.22886,5.49537 -6.22886,6.35083 0,0.568657 0.529098,0.568657 1.14061,0.568657 0.773044,0 0.977431,0 1.13896,-0.529098 0.32636,-1.0582 1.42576,-4.92506 3.7449,-4.92506 0.204387,0 0.570305,0 0.570305,0.733485 0,0.529098 -0.285153,1.54609 -0.32636,1.6285l-3.66248 9.68695z"/>
  <path id="12" class="fil14" d="M616.864 370.074l17.9679 0c0.754913,0 2.49879,0 2.49879,-1.74388 0,-1.80322 -1.68619,-1.80322 -2.49879,-1.80322l-17.9679 0 0 -18.0256c0,-0.698871 0,-2.44275 -1.74553,-2.44275 -1.80157,0 -1.80157,1.68619 -1.80157,2.44275l0 18.0256 -17.9679 0c-0.814251,0 -2.50044,0 -2.50044,1.80322 0,1.74388 1.74388,1.74388 2.50044,1.74388l17.9679 0 0 18.0355c0,0.697223 0,2.44275 1.74388,2.44275 1.80322,0 1.80322,-1.68619 1.80322,-2.44275l0 -18.0355z"/>
  <path id="123" class="fil14" d="M705.458 368.33c0,-7.26892 -1.9186,-13.6659 -4.65145,-18.4921 -3.83885,-6.68708 -9.12983,-10.582 -10.2342,-10.582 -0.464815,0 -1.04666,0.17307 -1.04666,0.814251 0,0.290098 0,0.405477 0.988969,1.33676 7.32661,7.44199 9.3029,17.7355 9.3029,26.8637 0,11.4556 -2.96526,20.5953 -9.36224,27.0483 -0.871941,0.873589 -0.929631,0.931279 -0.929631,1.22138 0,0.639533 0.581843,0.814251 1.04666,0.814251 0.988969,0 3.43007,-2.15101 4.47673,-3.13998 9.07214,-9.0128 10.4089,-19.7217 10.4089,-25.8846z"/>
  <path class="fil14" d="M670.879 331.812c0,-0.886775 0,-1.28896 -1.04666,-1.28896 -0.441739,0 -0.522505,0 -0.885127,0.281856 -3.09877,2.29441 -7.2442,2.29441 -8.08977,2.29441l-0.804361 0 0 1.89223 0.804361 0c0.644478,0 2.85812,-0.041207 5.23165,-0.80601l0 20.8079 -5.59427 0 0 1.89223c1.7719,-0.120325 6.03765,-0.120325 8.009,-0.120325 1.97299,0 6.23875,0 8.009,0.120325l0 -1.89223 -5.63383 0 0 -23.1814z"/>
  <path class="fil14" d="M677.439 393.008l-1.89223 0c-0.120325,0.804361 -0.482946,3.38063 -1.04501,3.66248 -0.443388,0.242297 -3.46139,0.242297 -4.10587,0.242297l-5.91568 0c1.89058,-1.57081 3.9839,-3.30151 5.79536,-4.62837 4.58717,-3.38227 7.16343,-5.27285 7.16343,-9.09687 0,-4.62837 -4.18499,-7.60682 -9.86002,-7.60682 -4.87067,0 -8.65348,2.4955 -8.65348,6.11842 0,2.37353 1.93179,2.97844 2.89768,2.97844 1.28731,0 2.89768,-0.886775 2.89768,-2.89768 0,-2.09332 -1.69114,-2.7378 -2.29441,-2.89933 1.16698,-0.965893 2.69659,-1.40763 4.14543,-1.40763 3.46139,0 5.31241,2.73615 5.31241,5.7558 0,2.77571 -1.52796,5.5135 -4.34652,8.37162l-8.08977 8.24965c-0.522505,0.482946 -0.522505,0.563712 -0.522505,1.36807l0 0.725244 17.2657 0 1.24775 -8.93533z"/>
  <line class="fil4 str5" x1="647.491" y1="368.241" x2="686.578" y2= "368.241" />
  <path class="fil14" d="M536.562 326.279c-1.68619,-1.57081 -5.4657,-5.11791 -7.90681,-12.5599 -1.51312,-4.60365 -2.21035,-9.95397 -2.21035,-15.0702 0,-11.4556 2.96526,-20.5854 9.36224,-27.0401 0.871941,-0.871941 0.929631,-0.929631 0.929631,-1.21973 0,-0.641181 -0.581843,-0.814251 -1.04666,-0.814251 -0.988969,0 -3.43007,2.15101 -4.47673,3.13998 -9.07214,9.0128 -10.4089,19.7118 -10.4089,25.8747 0,7.26892 1.9186,13.6659 4.65145,18.502 3.83885,6.68708 9.12983,10.582 10.2342,10.582 0.464815,0 1.04666,-0.174718 1.04666,-0.814251 0,-0.290098 -0.174718,-0.522505 -0.174718,-0.580195z"/>
  <path id="1" class="fil14" d="M617.782 300.393l17.9679 0c0.754913,0 2.49879,0 2.49879,-1.74388 0,-1.80322 -1.68619,-1.80322 -2.49879,-1.80322l-17.9679 0 0 -18.0256c0,-0.698871 0,-2.44275 -1.74553,-2.44275 -1.80157,0 -1.80157,1.68619 -1.80157,2.44275l0 18.0256 -17.9679 0c-0.814251,0 -2.50044,0 -2.50044,1.80322 0,1.74388 1.74388,1.74388 2.50044,1.74388l17.9679 0 0 18.0355c0,0.697223 0,2.44275 1.74388,2.44275 1.80322,0 1.80322,-1.68619 1.80322,-2.44275l0 -18.0355z"/>
  <path id="12" class="fil14" d="M671.889 276.959c0,-1.27907 0,-1.86091 -1.51147,-1.86091 -0.639533,0 -0.754913,0 -1.27907,0.407126 -4.47673,3.31469 -10.4666,3.31469 -11.688,3.31469l-1.16204 0 0 2.73285 1.16204 0c0.931279,0 4.12894,-0.0576898 7.55902,-1.16369l0 30.063 -8.08152 0 0 2.73285c2.55813,-0.174718 8.72106,-0.174718 11.5709,-0.174718 2.84988,0 9.0128,0 11.5709,0.174718l0 -2.73285 -8.14086 0 0 -33.4931z"/>
  <path id="123" class="fil14" d="M697.183 312.023c-0.464815,6.34753 -4.24432,9.42817 -5.4657,10.4748 -0.347787,0.291746 -0.522505,0.466464 -0.522505,0.814251 0,0.581843 0.639533,1.16369 1.10435,1.16369 0.871941,0 6.97882,-5.00089 6.97882,-13.0923 0,-3.95423 -1.97794,-7.26892 -5.35032,-7.26892 -2.67516,0 -4.47673,2.03398 -4.47673,4.53442 0,2.32737 1.56916,4.53607 4.53442,4.53607 1.86091,0 3.0246,-0.988969 3.19767,-1.16204z"/>
  <path id="1234" class="fil14" d="M564.647 294.17c0.524153,-2.2087 2.15266,-5.1756 4.47838,-5.1756 0.290098,0 1.45378,0 2.38341,0.931279 -2.96526,1.10435 -2.96526,3.72182 -2.96526,3.95423 0,1.45378 1.10435,2.67516 2.90757,2.67516 2.15101,0 4.18663,-1.80322 4.18663,-4.53607 0,-3.08229 -2.90757,-5.11791 -6.33764,-5.11791 -1.3384,0 -3.60644,0.349436 -5.93216,3.08229 -1.33676,-1.86091 -3.89489,-3.08229 -7.32661,-3.08229 -7.20958,0 -11.0484,7.21123 -11.0484,9.07214 0,0.814251 0.756561,0.814251 1.6285,0.814251 1.16369,0 1.39609,0 1.68619,-0.814251 1.51147,-5.00089 5.11791,-6.97882 7.44364,-6.97882 2.96526,0 2.96526,2.21035 2.96526,2.84988 0,1.22138 -0.756561,4.24432 -1.27907,6.33764l-1.86091 7.56067c-0.814251,3.19767 -2.26804,5.81349 -4.65145,5.81349 -0.174718,0 -1.45378,0 -2.32573,-0.929631 2.96526,-1.10435 2.96526,-3.72182 2.96526,-3.95423 0,-1.45378 -1.10435,-2.67516 -2.90757,-2.67516 -2.21035,0 -4.18663,1.86091 -4.18663,4.53607 0,3.02295 2.79054,5.12616 6.33764,5.12616 2.96526,0 5.00089,-1.98618 5.93216,-3.09053 1.33676,1.97629 4.06961,3.09053 7.26727,3.09053 7.26892,0 11.1061,-7.21947 11.1061,-9.08038 0,-0.814251 -0.754913,-0.814251 -1.62685,-0.814251 -1.16369,0 -1.39609,0 -1.68619,0.814251 -1.51312,4.88386 -5.00089,6.97718 -7.50133,6.97718 -2.96526,0 -2.96526,-2.26804 -2.96526,-2.84823 0,-0.349436 0,-0.931279 0.17307,-1.6285l3.13998 -12.9093z"/>
  <path id="12345" class="fil14" d="M588.278 303.155c0,-1.0582 -0.773044,-1.95486 -1.99442,-1.95486 -1.50488,0 -2.88944,1.38456 -2.88944,2.80867 0,1.0994 0.814251,1.95486 1.99442,1.95486 1.50653,0 2.88944,-1.38456 2.88944,-2.80867zm-9.4018 21.4095c-0.243946,0.651071 -0.365918,0.977431 -0.365918,1.5873 0,2.27957 2.07519,3.63611 4.27399,3.63611 4.23279,0 6.22721,-5.50856 6.22721,-6.36237 0,-0.570305 -0.529098,-0.570305 -1.14061,-0.570305 -0.773044,0 -0.975783,0 -1.13896,0.529098 -0.32636,1.0582 -1.42412,4.92506 -3.7449,4.92506 -0.202739,0 -0.570305,0 -0.570305,-0.733485 0,-0.529098 0.285153,-1.54609 0.32636,-1.62685l3.66248 -9.6886c0.245594,-0.651071 0.367567,-0.975783 0.367567,-1.5873 0,-2.27957 -2.07683,-3.62292 -4.27399,-3.62292 -4.23279,0 -6.22886,5.49537 -6.22886,6.35083 0,0.568657 0.530747,0.568657 1.14061,0.568657 0.773044,0 0.977431,0 1.13896,-0.529098 0.32636,-1.0582 1.42576,-4.92506 3.7449,-4.92506 0.204387,0 0.570305,0 0.570305,0.733485 0,0.529098 -0.285153,1.54609 -0.32636,1.6285l-3.66248 9.68695z"/>
  <path class="fil15" d="M71.0558 535.688c-1.68619,-1.57081 -5.4657,-5.11791 -7.90681,-12.5599 -1.51312,-4.60365 -2.21035,-9.95397 -2.21035,-15.0702 0,-11.4556 2.96526,-20.5854 9.36224,-27.0401 0.871941,-0.871941 0.929631,-0.929631 0.929631,-1.21973 0,-0.641181 -0.581843,-0.814251 -1.04666,-0.814251 -0.988969,0 -3.43007,2.15101 -4.47673,3.13998 -9.07214,9.0128 -10.4089,19.7118 -10.4089,25.8747 0,7.26892 1.9186,13.6659 4.65145,18.502 3.83885,6.68708 9.12983,10.582 10.2342,10.582 0.464815,0 1.04666,-0.174718 1.04666,-0.814251 0,-0.290098 -0.174718,-0.522505 -0.174718,-0.580195z"/>
  <path id="1" class="fil15" d="M134.564 521.432c-0.464815,6.34753 -4.24432,9.42817 -5.4657,10.4748 -0.347787,0.291746 -0.522505,0.466464 -0.522505,0.814251 0,0.581843 0.639533,1.16369 1.10435,1.16369 0.871941,0 6.97882,-5.00089 6.97882,-13.0923 0,-3.95423 -1.97794,-7.26892 -5.35032,-7.26892 -2.67516,0 -4.47673,2.03398 -4.47673,4.53442 0,2.32737 1.56916,4.53607 4.53442,4.53607 1.86091,0 3.0246,-0.988969 3.19767,-1.16204z"/>
  <path id="12" class="fil15" d="M231.567 508.058c0,-7.26892 -1.9186,-13.6659 -4.65145,-18.4921 -3.83885,-6.68708 -9.12983,-10.582 -10.2342,-10.582 -0.464815,0 -1.04666,0.17307 -1.04666,0.814251 0,0.290098 0,0.405477 0.988969,1.33676 7.32661,7.44199 9.3029,17.7355 9.3029,26.8637 0,11.4556 -2.96526,20.5953 -9.36224,27.0483 -0.871941,0.873589 -0.929631,0.931279 -0.929631,1.22138 0,0.639533 0.581843,0.814251 1.04666,0.814251 0.988969,0 3.43007,-2.15101 4.47673,-3.13998 9.07214,-9.0128 10.4089,-19.7217 10.4089,-25.8846z"/>
  <path id="123" class="fil15" d="M99.1408 503.58c0.524153,-2.2087 2.15266,-5.1756 4.47838,-5.1756 0.290098,0 1.45378,0 2.38341,0.931279 -2.96526,1.10435 -2.96526,3.72182 -2.96526,3.95423 0,1.45378 1.10435,2.67516 2.90757,2.67516 2.15101,0 4.18663,-1.80322 4.18663,-4.53607 0,-3.08229 -2.90757,-5.11791 -6.33764,-5.11791 -1.3384,0 -3.60644,0.349436 -5.93216,3.08229 -1.33676,-1.86091 -3.89489,-3.08229 -7.32661,-3.08229 -7.20958,0 -11.0484,7.21123 -11.0484,9.07214 0,0.814251 0.756561,0.814251 1.6285,0.814251 1.16369,0 1.39609,0 1.68619,-0.814251 1.51147,-5.00089 5.11791,-6.97882 7.44364,-6.97882 2.96526,0 2.96526,2.21035 2.96526,2.84988 0,1.22138 -0.756561,4.24432 -1.27907,6.33764l-1.86091 7.56067c-0.814251,3.19767 -2.26804,5.81349 -4.65145,5.81349 -0.174718,0 -1.45378,0 -2.32573,-0.929631 2.96526,-1.10435 2.96526,-3.72182 2.96526,-3.95423 0,-1.45378 -1.10435,-2.67516 -2.90757,-2.67516 -2.21035,0 -4.18663,1.86091 -4.18663,4.53607 0,3.02295 2.79054,5.12616 6.33764,5.12616 2.96526,0 5.00089,-1.98618 5.93216,-3.09053 1.33676,1.97629 4.06961,3.09053 7.26727,3.09053 7.26892,0 11.1061,-7.21947 11.1061,-9.08038 0,-0.814251 -0.754913,-0.814251 -1.62685,-0.814251 -1.16369,0 -1.39609,0 -1.68619,0.814251 -1.51312,4.88386 -5.00089,6.97718 -7.50133,6.97718 -2.96526,0 -2.96526,-2.26804 -2.96526,-2.84823 0,-0.349436 0,-0.931279 0.17307,-1.6285l3.13998 -12.9093z"/>
  <path id="1234" class="fil15" d="M199.109 500.557c0.232408,-0.871941 0.232408,-0.988969 0.232408,-1.27907 0,-1.80322 -1.39445,-2.50044 -2.61582,-2.50044 -0.349436,0 -2.90757,0.0576898 -3.66413,3.13998l-4.18663 16.6295c-0.17307,0.698871 -0.407126,1.57081 -2.15101,3.0246 -0.464815,0.407126 -1.86091,1.39445 -3.66248,1.39445 -2.90757,0 -3.0246,-2.73285 -3.0246,-4.01192 0,-3.48941 1.97794,-8.66337 3.37238,-12.3275 0.524153,-1.45378 0.814251,-2.15101 0.814251,-3.13998 0,-3.25536 -2.96526,-5.1756 -6.10523,-5.1756 -6.04754,0 -8.89742,7.85076 -8.89742,9.07214 0,0.814251 0.756561,0.814251 1.6285,0.814251 1.10435,0 1.39609,0 1.6285,-0.756561 0.464815,-1.51147 2.03563,-7.03651 5.35032,-7.03651 0.290098,0 0.812603,0 0.812603,1.04666 0,1.22138 -0.697223,3.0246 -1.04666,3.83885 -1.85926,5.00089 -3.48776,9.18752 -3.48776,12.4429 0,5.29263 3.77951,7.3365 8.60568,7.3365 2.32573,0 4.01192,-0.824141 4.88386,-1.40434 -1.10435,5.24318 -4.70914,10.5919 -9.18752,10.5919 -0.522505,0 -1.86091,-0.0576898 -3.02295,-0.871941 0.871941,-0.407126 2.61582,-1.6285 2.61582,-3.8372 0,-2.21035 -1.80157,-2.67516 -2.84823,-2.67516 -2.32573,0 -4.18663,1.9186 -4.18663,4.41904 0,3.08229 3.08064,5.05858 7.3843,5.05858 7.32661,0 13.7813,-5.69811 15.1774,-11.3385l5.58108 -22.4545z"/>
  <path id="12345" class="fil15" d="M122.772 512.564c0,-1.0582 -0.773044,-1.95486 -1.99442,-1.95486 -1.50488,0 -2.88944,1.38456 -2.88944,2.80867 0,1.0994 0.814251,1.95486 1.99442,1.95486 1.50653,0 2.88944,-1.38456 2.88944,-2.80867zm-9.4018 21.4095c-0.243946,0.651071 -0.365918,0.977431 -0.365918,1.5873 0,2.27957 2.07519,3.63611 4.27399,3.63611 4.23279,0 6.22721,-5.50856 6.22721,-6.36237 0,-0.570305 -0.529098,-0.570305 -1.14061,-0.570305 -0.773044,0 -0.975783,0 -1.13896,0.529098 -0.32636,1.0582 -1.42412,4.92506 -3.7449,4.92506 -0.202739,0 -0.570305,0 -0.570305,-0.733485 0,-0.529098 0.285153,-1.54609 0.32636,-1.62685l3.66248 -9.6886c0.245594,-0.651071 0.367567,-0.975783 0.367567,-1.5873 0,-2.27957 -2.07683,-3.62292 -4.27399,-3.62292 -4.23279,0 -6.22886,5.49537 -6.22886,6.35083 0,0.568657 0.530747,0.568657 1.14061,0.568657 0.773044,0 0.977431,0 1.13896,-0.529098 0.32636,-1.0582 1.42576,-4.92506 3.7449,-4.92506 0.204387,0 0.570305,0 0.570305,0.733485 0,0.529098 -0.285153,1.54609 -0.32636,1.6285l-3.66248 9.68695z"/>
  <path id="123456" class="fil15" d="M212.564 512.564c0,-1.0582 -0.773044,-1.95321 -1.99442,-1.95321 -1.50653,0 -2.88944,1.38291 -2.88944,2.80702 0,1.0994 0.814251,1.95486 1.99442,1.95486 1.50653,0 2.88944,-1.38456 2.88944,-2.80867zm-9.4018 21.4095c-0.243946,0.651071 -0.365918,0.977431 -0.365918,1.5873 0,2.27957 2.07519,3.63611 4.27235,3.63611 4.23443,0 6.22886,-5.50856 6.22886,-6.36401 0,-0.568657 -0.529098,-0.568657 -1.14061,-0.568657 -0.773044,0 -0.975783,0 -1.13896,0.529098 -0.32636,1.0582 -1.42412,4.92506 -3.7449,4.92506 -0.204387,0 -0.570305,0 -0.570305,-0.733485 0,-0.529098 0.285153,-1.54609 0.32636,-1.6285l3.66248 -9.68695c0.243946,-0.651071 0.365918,-0.975783 0.365918,-1.5873 0,-2.27957 -2.07519,-3.62292 -4.27235,-3.62292 -4.23443,0 -6.22886,5.49537 -6.22886,6.35083 0,0.568657 0.529098,0.568657 1.14061,0.568657 0.773044,0 0.977431,0 1.13896,-0.529098 0.32636,-1.0582 1.42576,-4.92506 3.7449,-4.92506 0.204387,0 0.570305,0 0.570305,0.733485 0,0.529098 -0.285153,1.54609 -0.32636,1.6285l-3.66248 9.68695z"/>
 </g>
</svg>
